<?xml version="1.0" standalone="no"?>
<!DOCTYPE svg PUBLIC "-//W3C//DTD SVG 20010904//EN"
 "http://www.w3.org/TR/2001/REC-SVG-20010904/DTD/svg10.dtd">
<svg version="1.0" xmlns="http://www.w3.org/2000/svg"
 width="300.000000pt" height="291.000000pt" viewBox="0 0 300.000000 291.000000"
 preserveAspectRatio="xMidYMid meet">

<g transform="translate(0.000000,291.000000) scale(0.100000,-0.100000)"
fill="#000000" stroke="none">
<path d="M700 2810 c-13 -8 -15 -97 -18 -682 -2 -476 0 -690 8 -733 20 -101
76 -176 173 -227 l42 -23 640 0 640 0 54 30 c64 35 115 95 142 165 18 48 19
83 19 685 0 624 0 634 -20 645 -14 7 -26 8 -40 0 -19 -10 -19 -27 -22 -643
l-3 -632 -23 -47 c-26 -53 -87 -103 -144 -119 -24 -6 -250 -9 -625 -7 -586 3
-588 3 -630 25 -50 27 -100 86 -113 133 -6 21 -10 297 -10 693 l0 657 655 0
655 0 2 -586 3 -587 22 -14 c19 -13 24 -12 42 6 21 21 21 27 21 626 0 592 0
605 -20 625 -20 20 -33 20 -727 20 -429 0 -714 -4 -723 -10z"/>
<path d="M908 2549 c-25 -14 -22 -45 4 -63 20 -14 85 -16 511 -16 317 0 495 4
508 10 21 12 25 50 7 68 -16 16 -1004 17 -1030 1z"/>
<path d="M893 2348 c-6 -7 -13 -124 -17 -263 -6 -219 -5 -253 9 -272 16 -23
18 -23 273 -23 144 0 264 4 272 10 13 8 15 51 18 268 3 228 1 262 -13 276 -14
14 -50 16 -274 16 -195 0 -261 -3 -268 -12z m467 -273 l0 -195 -200 0 -200 0
0 195 0 195 200 0 200 0 0 -195z"/>
<path d="M1576 2294 c-11 -27 -7 -52 10 -58 24 -9 357 -7 372 3 8 5 12 21 10
37 l-3 29 -191 3 c-168 2 -192 0 -198 -14z"/>
<path d="M1580 2095 c-7 -8 -10 -25 -6 -40 l6 -25 193 2 c192 3 192 3 195 26
7 48 -7 52 -198 52 -145 0 -180 -3 -190 -15z"/>
<path d="M1588 1889 c-21 -12 -24 -49 -6 -67 8 -8 64 -12 188 -12 124 0 180 4
188 12 18 18 14 56 -7 68 -26 13 -340 13 -363 -1z"/>
<path d="M902 1638 c-17 -17 -15 -44 4 -62 14 -14 74 -16 514 -16 440 0 500 2
514 16 19 18 20 28 6 55 -10 18 -27 19 -518 19 -382 0 -511 -3 -520 -12z"/>
<path d="M1056 1404 c-21 -20 -20 -30 4 -54 19 -19 33 -20 428 -20 224 0 417
3 429 6 27 8 38 36 23 64 -11 20 -18 20 -440 20 -376 0 -430 -2 -444 -16z"/>
<path d="M1600 845 c0 -168 1 -175 20 -175 18 0 20 7 20 79 0 68 3 84 23 106
27 32 78 37 107 10 17 -15 20 -31 20 -107 0 -81 2 -88 20 -88 19 0 20 7 20
100 0 94 -2 103 -25 125 -32 33 -100 35 -139 4 l-26 -20 0 70 c0 64 -2 71 -20
71 -19 0 -20 -7 -20 -175z"/>
<path d="M90 835 c0 -158 1 -165 20 -165 19 0 20 7 20 126 0 69 4 124 9 122 5
-1 50 -58 100 -125 63 -86 97 -123 111 -123 19 0 20 7 20 165 0 157 -1 165
-20 165 -18 0 -20 -8 -22 -127 l-3 -128 -93 128 c-75 102 -98 127 -118 127
l-24 0 0 -165z"/>
<path d="M1320 985 c0 -11 12 -15 50 -15 l50 0 0 -151 c0 -150 0 -150 23 -147
22 3 22 6 25 151 l3 147 49 0 c38 0 50 4 50 15 0 13 -21 15 -125 15 -104 0
-125 -2 -125 -15z"/>
<path d="M1187 919 c-41 -11 -57 -28 -57 -58 0 -38 9 -46 73 -75 49 -21 58
-29 55 -48 -3 -20 -8 -23 -48 -22 -25 1 -54 3 -65 5 -35 7 -22 -25 15 -38 39
-13 83 -8 118 13 16 10 22 24 22 48 0 39 -12 51 -77 76 -39 14 -48 23 -48 41
0 23 3 24 58 22 44 -1 57 1 57 12 0 8 -12 17 -27 21 -16 3 -32 7 -38 8 -5 2
-23 -1 -38 -5z"/>
<path d="M488 900 c-54 -42 -62 -138 -17 -186 43 -45 144 -51 178 -10 16 19
-3 30 -28 16 -48 -25 -123 -3 -134 40 -5 19 -1 20 95 20 l101 0 -6 43 c-8 61
-51 97 -116 97 -33 0 -56 -6 -73 -20z m129 -32 c13 -12 23 -30 23 -40 0 -16
-9 -18 -81 -18 -79 0 -80 0 -74 23 17 56 89 75 132 35z"/>
<path d="M701 908 c0 -7 19 -62 43 -123 33 -88 46 -111 63 -113 18 -3 25 9 53
92 17 53 36 96 41 96 5 0 9 -4 9 -9 0 -6 14 -49 31 -96 27 -73 34 -86 52 -83
16 2 28 25 57 103 56 150 54 145 31 145 -16 0 -25 -18 -52 -100 -18 -54 -35
-97 -39 -94 -3 3 -19 47 -36 97 -27 80 -34 92 -55 95 -23 3 -27 -4 -58 -100
l-34 -103 -34 103 c-28 82 -38 102 -54 102 -10 0 -19 -6 -18 -12z"/>
<path d="M1928 891 c-30 -27 -33 -34 -33 -89 0 -50 4 -65 24 -86 45 -47 146
-54 180 -12 16 19 -3 30 -28 16 -36 -19 -90 -12 -116 15 -14 13 -25 29 -25 35
0 6 37 10 100 10 112 0 116 3 86 74 -19 46 -51 66 -108 66 -39 0 -54 -6 -80
-29z m136 -22 c14 -11 26 -29 26 -40 0 -17 -8 -19 -80 -19 -90 0 -100 11 -55
55 30 31 73 32 109 4z"/>
<path d="M2190 795 c0 -118 1 -125 20 -125 18 0 20 7 20 65 0 65 17 126 39
139 6 4 25 8 43 8 52 2 68 -29 68 -128 0 -77 2 -84 20 -84 18 0 20 7 20 78 0
85 13 116 56 132 31 12 73 -6 79 -34 3 -12 6 -55 7 -96 3 -67 5 -75 23 -75 19
0 20 6 19 97 0 88 -3 100 -24 123 -33 35 -101 35 -135 0 l-25 -24 -25 24 c-32
33 -100 35 -139 4 l-26 -20 0 20 c0 14 -6 21 -20 21 -19 0 -20 -7 -20 -125z"/>
<path d="M2718 905 c-16 -9 -33 -32 -43 -59 -15 -39 -16 -50 -4 -87 19 -56 56
-83 116 -83 58 0 110 29 92 50 -9 11 -15 11 -32 -1 -33 -23 -90 -19 -115 8
-39 41 -30 47 74 47 l97 0 -6 47 c-7 64 -40 93 -105 93 -26 -1 -59 -7 -74 -15z
m122 -35 c11 -11 20 -29 20 -40 0 -18 -7 -20 -75 -20 -67 0 -75 2 -75 19 0 26
46 61 81 61 16 0 38 -9 49 -20z"/>
<path d="M1300 285 l0 -175 25 0 c25 0 25 1 25 80 0 73 3 83 25 105 30 31 75
33 100 5 14 -16 20 -42 23 -105 4 -75 7 -85 23 -85 17 0 19 8 19 73 0 99 -14
143 -50 162 -16 8 -38 15 -50 15 -26 0 -77 -25 -83 -42 -3 -7 -6 22 -6 65 -1
75 -2 77 -26 77 l-25 0 0 -175z"/>
<path d="M1620 445 c-11 -13 -11 -19 3 -33 20 -19 41 -5 35 24 -4 24 -22 28
-38 9z"/>
<path d="M1750 285 c0 -168 1 -175 20 -175 19 0 20 7 20 175 0 168 -1 175 -20
175 -19 0 -20 -7 -20 -175z"/>
<path d="M2070 390 l0 -70 -32 20 c-110 67 -227 -65 -158 -178 33 -54 115 -70
164 -31 l26 20 0 -20 c0 -16 6 -21 25 -21 l25 0 0 175 0 175 -25 0 c-24 0 -25
-2 -25 -70z m-21 -96 c23 -30 28 -90 8 -115 -35 -46 -88 -50 -128 -10 -33 33
-37 67 -14 111 17 33 27 38 77 39 28 1 41 -5 57 -25z"/>
<path d="M1048 427 c-63 -29 -98 -82 -98 -153 0 -130 142 -208 253 -141 33 20
36 25 23 36 -12 10 -19 10 -38 -3 -13 -9 -43 -16 -70 -16 -41 0 -54 5 -86 34
-34 32 -37 38 -37 91 0 53 3 59 37 91 31 28 46 34 80 34 24 0 56 -8 74 -19 30
-18 31 -18 42 -1 10 16 6 21 -32 39 -46 23 -106 26 -148 8z"/>
<path d="M1620 235 c0 -118 1 -125 20 -125 19 0 20 7 20 125 0 118 -1 125 -20
125 -19 0 -20 -7 -20 -125z"/>
</g>
</svg>
